<svg width="1200" height="970" viewBox="0 0 1200 970" xmlns="http://www.w3.org/2000/svg">
  <defs>
    <filter id="shadow" x="-10%" y="-10%" width="125%" height="140%">
      <feDropShadow dx="0" dy="2" stdDeviation="4" flood-color="#0a0e27" flood-opacity="0.08"/>
    </filter>
    <marker id="arrowhead" markerWidth="10" markerHeight="8" refX="5" refY="4" orient="auto">
      <polygon points="0 0, 10 4, 0 8" fill="#d97757"/>
    </marker>
  </defs>

  <!-- Background -->
  <rect width="1200" height="970" fill="#ffffff"/>

  <!-- Header -->
  <text x="600" y="58"
    font-family="Inter, system-ui, -apple-system, sans-serif"
    font-size="32" font-weight="700" fill="#0a0e27" text-anchor="middle">How it works</text>
  <rect x="570" y="83" width="60" height="2" fill="#d97757"/>

  <!-- ======================== LAYER 1: USER ======================== -->
  <rect x="450" y="140" width="300" height="80" rx="12" ry="12"
    fill="#ffffff" stroke="#0a0e27" stroke-width="2" filter="url(#shadow)"/>
  <text x="600" y="178"
    font-family="Inter, system-ui, -apple-system, sans-serif"
    font-size="18" font-weight="700" fill="#0a0e27" text-anchor="middle">USER</text>
  <!-- Microphone icon left of subtitle -->
  <g transform="translate(524, 187)">
    <rect x="4" y="0" width="8" height="11" rx="4" fill="none" stroke="#d97757" stroke-width="1.5"/>
    <path d="M2 8 Q2 14 10 14 Q18 14 18 8" fill="none" stroke="#d97757" stroke-width="1.5" stroke-linecap="round"/>
    <line x1="10" y1="14" x2="10" y2="16" stroke="#d97757" stroke-width="1.5" stroke-linecap="round"/>
  </g>
  <text x="600" y="203"
    font-family="Inter, system-ui, -apple-system, sans-serif"
    font-size="12" font-weight="400" fill="#6a6a7a" text-anchor="middle">Voice or text input</text>
  <!-- Keyboard icon right of subtitle -->
  <g transform="translate(664, 188)">
    <rect x="0" y="0" width="16" height="12" rx="2" fill="none" stroke="#d97757" stroke-width="1.5"/>
    <line x1="3" y1="4" x2="3" y2="4" stroke="#d97757" stroke-width="1.5" stroke-linecap="round"/>
    <line x1="6" y1="4" x2="6" y2="4" stroke="#d97757" stroke-width="1.5" stroke-linecap="round"/>
    <line x1="9" y1="4" x2="9" y2="4" stroke="#d97757" stroke-width="1.5" stroke-linecap="round"/>
    <line x1="12" y1="4" x2="12" y2="4" stroke="#d97757" stroke-width="1.5" stroke-linecap="round"/>
    <line x1="3" y1="7" x2="3" y2="7" stroke="#d97757" stroke-width="1.5" stroke-linecap="round"/>
    <line x1="6" y1="7" x2="6" y2="7" stroke="#d97757" stroke-width="1.5" stroke-linecap="round"/>
    <line x1="9" y1="7" x2="9" y2="7" stroke="#d97757" stroke-width="1.5" stroke-linecap="round"/>
    <line x1="12" y1="7" x2="12" y2="7" stroke="#d97757" stroke-width="1.5" stroke-linecap="round"/>
    <line x1="4" y1="10" x2="11" y2="10" stroke="#d97757" stroke-width="1.5" stroke-linecap="round"/>
  </g>

  <!-- Arrow 1 → 2 -->
  <line x1="600" y1="222" x2="600" y2="253" stroke="#d97757" stroke-width="2"
    marker-end="url(#arrowhead)"/>

  <!-- ======================== LAYER 2: NEXT.JS APP ROUTER ======================== -->
  <rect x="200" y="260" width="800" height="110" rx="12" ry="12"
    fill="#fafafa" stroke="#e5e5e5" stroke-width="1" filter="url(#shadow)"/>
  <text x="600" y="295"
    font-family="Inter, system-ui, -apple-system, sans-serif"
    font-size="16" font-weight="700" fill="#0a0e27" text-anchor="middle">NEXT.JS APP ROUTER</text>
  <text x="600" y="322"
    font-family="Inter, system-ui, -apple-system, sans-serif"
    font-size="12" font-weight="400" fill="#6a6a7a" text-anchor="middle">Chat UI · Artifact Rendering · Voice Loop · Memory Layer</text>
  <text x="600" y="348"
    font-family="Inter, system-ui, -apple-system, sans-serif"
    font-size="11" font-weight="400" fill="#9a9a9a" text-anchor="middle">Streaming SSE · Source Page Viewer · Customer Mode · Onboarding Tour</text>

  <!-- Arrow 2 → 3 -->
  <line x1="600" y1="372" x2="600" y2="413" stroke="#d97757" stroke-width="2"
    marker-end="url(#arrowhead)"/>

  <!-- ======================== LAYER 3: ANTHROPIC SDK ======================== -->
  <rect x="200" y="420" width="800" height="110" rx="12" ry="12"
    fill="#ffffff" stroke="#d97757" stroke-width="2" filter="url(#shadow)"/>
  <text x="600" y="455"
    font-family="Inter, system-ui, -apple-system, sans-serif"
    font-size="16" font-weight="700" fill="#0a0e27" text-anchor="middle">ANTHROPIC SDK · Claude Sonnet 4.5</text>
  <text x="600" y="482"
    font-family="Inter, system-ui, -apple-system, sans-serif"
    font-size="12" font-weight="400" fill="#6a6a7a" text-anchor="middle">Streaming · Tool Use · Vision Input · 10-Turn Agent Loop</text>
  <text x="600" y="508"
    font-family="Inter, system-ui, -apple-system, sans-serif"
    font-size="11" font-weight="400" fill="#9a9a9a" text-anchor="middle">12 tools available · Image bytes embedded in tool results · Memory context injection</text>

  <!-- Arrow 3 → NEW LAYER -->
  <line x1="600" y1="532" x2="600" y2="550" stroke="#d97757" stroke-width="2"
    marker-end="url(#arrowhead)"/>

  <!-- ======================== NEW LAYER: MULTI-AGENT ORCHESTRATION ======================== -->
  <rect x="200" y="552" width="800" height="60" rx="12" ry="12"
    fill="#fff8f5" stroke="#d97757" stroke-width="1.5" filter="url(#shadow)"/>
  <!-- Left label -->
  <text x="228" y="588"
    font-family="Inter, system-ui, -apple-system, sans-serif"
    font-size="14" font-weight="700" fill="#0a0e27">Multi-agent orchestration</text>
  <!-- Right-side pills: Technical · Safety · Quality -->
  <!-- Technical pill -->
  <rect x="778" y="570" width="82" height="24" rx="12"
    fill="#f0f0f0" stroke="none"/>
  <text x="819" y="587"
    font-family="'Courier New', Courier, monospace"
    font-size="11" font-weight="400" fill="#4a4a5a" text-anchor="middle">Technical</text>
  <!-- Safety pill -->
  <rect x="868" y="570" width="60" height="24" rx="12"
    fill="#f0f0f0" stroke="none"/>
  <text x="898" y="587"
    font-family="'Courier New', Courier, monospace"
    font-size="11" font-weight="400" fill="#4a4a5a" text-anchor="middle">Safety</text>
  <!-- Quality pill -->
  <rect x="936" y="570" width="62" height="24" rx="12"
    fill="#f0f0f0" stroke="none"/>
  <text x="967" y="587"
    font-family="'Courier New', Courier, monospace"
    font-size="11" font-weight="400" fill="#4a4a5a" text-anchor="middle">Quality</text>

  <!-- Arrow NEW LAYER → Tool Layer -->
  <line x1="600" y1="614" x2="600" y2="643" stroke="#d97757" stroke-width="2"
    marker-end="url(#arrowhead)"/>
  <text x="610" y="633"
    font-family="Inter, system-ui, -apple-system, sans-serif"
    font-size="10" font-weight="400" fill="#d97757">Tool Calls</text>

  <!-- ======================== LAYER 4: TOOL CARDS (shifted +70px) ======================== -->

  <!-- Tool Card 1: STRUCTURED LOOKUPS -->
  <rect x="80" y="650" width="192" height="140" rx="12" ry="12"
    fill="#ffffff" stroke="#e5e5e5" stroke-width="1" filter="url(#shadow)"/>
  <ellipse cx="176" cy="678" rx="18" ry="6" fill="none" stroke="#d97757" stroke-width="2"/>
  <ellipse cx="176" cy="692" rx="18" ry="6" fill="none" stroke="#d97757" stroke-width="2"/>
  <line x1="158" y1="678" x2="158" y2="692" stroke="#d97757" stroke-width="2"/>
  <line x1="194" y1="678" x2="194" y2="692" stroke="#d97757" stroke-width="2"/>
  <text x="176" y="718"
    font-family="Inter, system-ui, -apple-system, sans-serif"
    font-size="11" font-weight="700" fill="#0a0e27" text-anchor="middle">STRUCTURED LOOKUPS</text>
  <text x="176" y="735"
    font-family="Inter, system-ui, -apple-system, sans-serif"
    font-size="10" font-weight="400" fill="#6a6a7a" text-anchor="middle">lookup_duty_cycle</text>
  <text x="176" y="750"
    font-family="Inter, system-ui, -apple-system, sans-serif"
    font-size="10" font-weight="400" fill="#6a6a7a" text-anchor="middle">lookup_polarity</text>
  <text x="176" y="765"
    font-family="Inter, system-ui, -apple-system, sans-serif"
    font-size="10" font-weight="400" fill="#6a6a7a" text-anchor="middle">lookup_specs</text>

  <!-- Tool Card 2: MULTIMODAL -->
  <rect x="288" y="650" width="192" height="140" rx="12" ry="12"
    fill="#ffffff" stroke="#e5e5e5" stroke-width="1" filter="url(#shadow)"/>
  <rect x="366" y="670" width="36" height="28" rx="4" fill="none" stroke="#d97757" stroke-width="2"/>
  <circle cx="384" cy="684" r="9" fill="none" stroke="#d97757" stroke-width="2"/>
  <circle cx="384" cy="684" r="4" fill="none" stroke="#d97757" stroke-width="1.5"/>
  <path d="M376 670 L376 665 L392 665 L392 670" fill="none" stroke="#d97757" stroke-width="2" stroke-linejoin="round"/>
  <text x="384" y="718"
    font-family="Inter, system-ui, -apple-system, sans-serif"
    font-size="11" font-weight="700" fill="#0a0e27" text-anchor="middle">MULTIMODAL</text>
  <text x="384" y="735"
    font-family="Inter, system-ui, -apple-system, sans-serif"
    font-size="10" font-weight="400" fill="#6a6a7a" text-anchor="middle">diagnose_weld_photo</text>
  <text x="384" y="750"
    font-family="Inter, system-ui, -apple-system, sans-serif"
    font-size="10" font-weight="400" fill="#6a6a7a" text-anchor="middle">annotate_machine_photo</text>
  <text x="384" y="765"
    font-family="Inter, system-ui, -apple-system, sans-serif"
    font-size="10" font-weight="400" fill="#6a6a7a" text-anchor="middle">extract_user_state</text>

  <!-- Tool Card 3: WALKTHROUGHS -->
  <rect x="496" y="650" width="192" height="140" rx="12" ry="12"
    fill="#ffffff" stroke="#e5e5e5" stroke-width="1" filter="url(#shadow)"/>
  <path d="M572 672 L574 675 L579 669" fill="none" stroke="#d97757" stroke-width="2" stroke-linecap="round" stroke-linejoin="round"/>
  <line x1="583" y1="672" x2="613" y2="672" stroke="#d97757" stroke-width="2" stroke-linecap="round"/>
  <path d="M572 682 L574 685 L579 679" fill="none" stroke="#d97757" stroke-width="2" stroke-linecap="round" stroke-linejoin="round"/>
  <line x1="583" y1="682" x2="610" y2="682" stroke="#d97757" stroke-width="2" stroke-linecap="round"/>
  <path d="M572 692 L574 695 L579 689" fill="none" stroke="#d97757" stroke-width="2" stroke-linecap="round" stroke-linejoin="round"/>
  <line x1="583" y1="692" x2="612" y2="692" stroke="#d97757" stroke-width="2" stroke-linecap="round"/>
  <text x="592" y="718"
    font-family="Inter, system-ui, -apple-system, sans-serif"
    font-size="11" font-weight="700" fill="#0a0e27" text-anchor="middle">WALKTHROUGHS</text>
  <text x="592" y="738"
    font-family="Inter, system-ui, -apple-system, sans-serif"
    font-size="10" font-weight="400" fill="#6a6a7a" text-anchor="middle">start_guided_walkthrough</text>
  <text x="592" y="754"
    font-family="Inter, system-ui, -apple-system, sans-serif"
    font-size="10" font-weight="400" fill="#6a6a7a" text-anchor="middle">render_artifact</text>

  <!-- Tool Card 4: MEMORY -->
  <rect x="704" y="650" width="192" height="140" rx="12" ry="12"
    fill="#ffffff" stroke="#e5e5e5" stroke-width="1" filter="url(#shadow)"/>
  <path d="M800 700 C780 700 770 690 770 680 C770 668 778 660 788 660 C790 652 796 648 800 648"
    fill="none" stroke="#d97757" stroke-width="2" stroke-linecap="round"/>
  <path d="M800 700 C820 700 830 690 830 680 C830 668 822 660 812 660 C810 652 804 648 800 648"
    fill="none" stroke="#d97757" stroke-width="2" stroke-linecap="round"/>
  <line x1="800" y1="648" x2="800" y2="658" stroke="#d97757" stroke-width="2" stroke-linecap="round"/>
  <line x1="788" y1="680" x2="812" y2="680" stroke="#d97757" stroke-width="1.5" stroke-linecap="round" stroke-dasharray="3 2"/>
  <path d="M785 700 Q800 706 815 700" fill="none" stroke="#d97757" stroke-width="2" stroke-linecap="round"/>
  <text x="800" y="725"
    font-family="Inter, system-ui, -apple-system, sans-serif"
    font-size="11" font-weight="700" fill="#0a0e27" text-anchor="middle">MEMORY</text>
  <text x="800" y="743"
    font-family="Inter, system-ui, -apple-system, sans-serif"
    font-size="10" font-weight="400" fill="#6a6a7a" text-anchor="middle">extract_user_state</text>
  <text x="800" y="758"
    font-family="Inter, system-ui, -apple-system, sans-serif"
    font-size="10" font-weight="400" fill="#6a6a7a" text-anchor="middle">getMemoryContext()</text>

  <!-- Tool Card 5: RECOMMENDATIONS -->
  <rect x="912" y="650" width="192" height="140" rx="12" ry="12"
    fill="#ffffff" stroke="#e5e5e5" stroke-width="1" filter="url(#shadow)"/>
  <rect x="988" y="666" width="40" height="30" rx="4" fill="none" stroke="#d97757" stroke-width="2"/>
  <polygon points="1001,672 1001,690 1017,681" fill="none" stroke="#d97757" stroke-width="2" stroke-linejoin="round"/>
  <text x="1008" y="718"
    font-family="Inter, system-ui, -apple-system, sans-serif"
    font-size="11" font-weight="700" fill="#0a0e27" text-anchor="middle">RECOMMENDATIONS</text>
  <text x="1008" y="738"
    font-family="Inter, system-ui, -apple-system, sans-serif"
    font-size="10" font-weight="400" fill="#6a6a7a" text-anchor="middle">find_relevant_videos</text>
  <text x="1008" y="754"
    font-family="Inter, system-ui, -apple-system, sans-serif"
    font-size="10" font-weight="400" fill="#6a6a7a" text-anchor="middle">search_manual</text>

  <!-- Arrow 4 → 5 -->
  <line x1="600" y1="792" x2="600" y2="823" stroke="#d97757" stroke-width="2"
    marker-end="url(#arrowhead)"/>

  <!-- ======================== LAYER 5: KNOWLEDGE BASE (shifted +70px) ======================== -->
  <rect x="200" y="830" width="800" height="80" rx="12" ry="12"
    fill="#fafafa" stroke="#e5e5e5" stroke-width="1" filter="url(#shadow)"/>
  <text x="600" y="865"
    font-family="Inter, system-ui, -apple-system, sans-serif"
    font-size="16" font-weight="700" fill="#0a0e27" text-anchor="middle">KNOWLEDGE BASE</text>
  <text x="600" y="892"
    font-family="Inter, system-ui, -apple-system, sans-serif"
    font-size="11" font-weight="400" fill="#6a6a7a" text-anchor="middle">Pre-extracted JSON · 51 manual page images · Curated YouTube library · 21 highlight regions</text>

  <!-- Bottom credit -->
  <text x="600" y="938"
    font-family="Inter, system-ui, -apple-system, sans-serif"
    font-size="11" font-weight="400" fill="#9a9a9a" text-anchor="middle">vikas kumar · prox founding engineer challenge</text>
</svg>
